<svg
    xmlns="http://www.w3.org/2000/svg"
    viewBox="0 0 500 500"
    version="1.1"
><path
        d="M 241.500 73.389 C 230.329 76.374, 222.986 81.296, 216.441 90.187 C 202.497 109.129, 205.549 133.834, 223.656 148.585 C 231.574 155.036, 238.586 157.375, 250 157.375 C 261.414 157.375, 268.426 155.036, 276.344 148.585 C 294.418 133.861, 297.478 109.094, 283.559 90.187 C 273.552 76.594, 255.895 69.542, 241.500 73.389 M 114.332 117.790 C 92.343 125.649, 86.050 153.107, 102.476 169.521 C 107.203 174.245, 111.954 176.676, 119.577 178.275 C 130.095 180.482, 143.626 174.860, 149.791 165.722 C 154.303 159.034, 155.502 155.090, 155.479 147 C 155.455 138.233, 153.277 132.526, 147.523 126.157 C 139.644 117.436, 125.383 113.840, 114.332 117.790 M 365.332 117.790 C 343.343 125.649, 337.050 153.107, 353.476 169.521 C 358.203 174.245, 362.954 176.676, 370.577 178.275 C 381.095 180.482, 394.626 174.860, 400.791 165.722 C 405.303 159.034, 406.502 155.090, 406.479 147 C 406.455 138.233, 404.277 132.526, 398.523 126.157 C 390.644 117.436, 376.383 113.840, 365.332 117.790 M 208.760 173.026 C 201.350 179.630, 193.931 190.852, 190.497 200.647 C 188.205 207.187, 187.664 210.684, 187.262 221.566 C 186.787 234.418, 186.820 234.680, 189.303 237.566 L 191.827 240.500 250 240.500 L 308.173 240.500 310.587 237.694 C 312.841 235.073, 313 234.117, 313 223.154 C 313 209.554, 311.546 202.728, 306.407 192.204 C 302.948 185.119, 293.883 174.189, 287.978 169.985 L 285.262 168.050 279.881 170.958 C 262.666 180.260, 238.038 180.372, 220.661 171.228 C 217.823 169.734, 215.258 168.391, 214.963 168.244 C 214.668 168.096, 211.877 170.248, 208.760 173.026 M 88.772 193.750 C 78.928 203.800, 73.429 216.652, 72.326 232.183 L 71.701 241 118.850 241 L 166 241 166 229.659 C 166 223.421, 166.491 214.670, 167.091 210.212 C 168.173 202.169, 168.160 202.077, 165.453 198.527 C 163.952 196.560, 160.991 193.577, 158.873 191.899 L 155.021 188.849 152.004 190.997 C 150.345 192.179, 146.178 194.338, 142.744 195.796 C 137.153 198.170, 135.245 198.447, 124.500 198.447 C 113.755 198.447, 111.847 198.170, 106.256 195.796 C 102.822 194.338, 98.703 192.213, 97.102 191.073 C 95.501 189.933, 94.019 189, 93.808 189 C 93.597 189, 91.331 191.137, 88.772 193.750 M 337.902 195.098 C 332.172 200.828, 331.839 201.416, 332.391 204.848 C 332.714 206.857, 333.271 215.813, 333.629 224.750 L 334.280 241 378.529 241 C 430.722 241, 427.607 241.666, 427.343 230.569 C 427.037 217.684, 420.478 202.836, 410.946 193.446 L 406.170 188.743 403.079 190.944 C 401.378 192.155, 397.178 194.338, 393.744 195.796 C 388.153 198.170, 386.245 198.447, 375.500 198.447 C 364.755 198.447, 362.847 198.170, 357.256 195.796 C 353.822 194.338, 349.703 192.213, 348.102 191.073 C 346.501 189.933, 344.923 189, 344.596 189 C 344.268 189, 341.256 191.744, 337.902 195.098 M 73.430 269.250 C 74.864 284.364, 80.405 306.099, 86.430 320.250 L 88.027 324 125.622 324 L 163.217 324 162.660 321.750 C 160.713 313.883, 156.058 272.615, 156.004 262.750 C 156.002 262.337, 137.267 262, 114.371 262 L 72.742 262 73.430 269.250 M 177.010 268.750 C 177.025 279.830, 180.022 304.434, 183.160 319.250 L 184.166 324 212.083 324 L 240 324 240 293 L 240 262 208.500 262 L 177 262 177.010 268.750 M 260 293 L 260 324 287.917 324 L 315.834 324 316.840 319.250 C 319.978 304.434, 322.975 279.830, 322.990 268.750 L 323 262 291.500 262 L 260 262 260 293 M 343.996 262.750 C 343.942 272.615, 339.287 313.883, 337.340 321.750 L 336.783 324 374.378 324 L 411.973 324 413.570 320.250 C 419.595 306.099, 425.136 284.364, 426.570 269.250 L 427.258 262 385.629 262 C 362.733 262, 343.998 262.337, 343.996 262.750 M 100 345.587 C 100 347.027, 110.636 361.323, 117.909 369.659 C 137.917 392.590, 164.498 410.606, 192.750 420.385 C 198.387 422.336, 203 423.731, 203 423.486 C 203 423.240, 200.709 419.628, 197.909 415.460 C 187.949 400.635, 175.312 370.984, 168.412 346.250 C 168.141 345.281, 160.404 345, 134.031 345 C 115.314 345, 100 345.264, 100 345.587 M 189.453 346.250 C 200.224 380.786, 210.002 400.787, 223.389 415.669 C 228.150 420.960, 236.295 427, 238.671 427 C 239.755 427, 240 419.426, 240 386 L 240 345 214.531 345 C 194.615 345, 189.148 345.273, 189.453 346.250 M 260 386 C 260 420.336, 260.226 427, 261.390 427 C 262.154 427, 265.434 425.046, 268.678 422.658 C 283.874 411.472, 299.331 383.931, 309.351 350.190 L 310.892 345 285.446 345 L 260 345 260 386 M 331.588 346.250 C 324.688 370.984, 312.051 400.635, 302.091 415.460 C 299.291 419.628, 297 423.240, 297 423.486 C 297 423.731, 301.613 422.336, 307.250 420.385 C 335.502 410.606, 362.083 392.590, 382.091 369.659 C 389.364 361.323, 400 347.027, 400 345.587 C 400 345.264, 384.686 345, 365.969 345 C 339.596 345, 331.859 345.281, 331.588 346.250"
        stroke="none"
        fill="currentColor"
        fill-rule="evenodd"
    /><path
        d="M 0 250.002 L 0 500.004 250.250 499.752 L 500.500 499.500 500.752 249.750 L 501.004 0 250.502 0 L 0 0 0 250.002 M 0.492 250.500 C 0.492 388, 0.608 444.101, 0.750 375.170 C 0.892 306.238, 0.892 193.738, 0.750 125.170 C 0.608 56.601, 0.492 113, 0.492 250.500 M 241.500 73.389 C 230.329 76.374, 222.986 81.296, 216.441 90.187 C 202.497 109.129, 205.549 133.834, 223.656 148.585 C 231.574 155.036, 238.586 157.375, 250 157.375 C 261.414 157.375, 268.426 155.036, 276.344 148.585 C 294.418 133.861, 297.478 109.094, 283.559 90.187 C 273.552 76.594, 255.895 69.542, 241.500 73.389 M 114.332 117.790 C 92.343 125.649, 86.050 153.107, 102.476 169.521 C 107.203 174.245, 111.954 176.676, 119.577 178.275 C 130.095 180.482, 143.626 174.860, 149.791 165.722 C 154.303 159.034, 155.502 155.090, 155.479 147 C 155.455 138.233, 153.277 132.526, 147.523 126.157 C 139.644 117.436, 125.383 113.840, 114.332 117.790 M 365.332 117.790 C 343.343 125.649, 337.050 153.107, 353.476 169.521 C 358.203 174.245, 362.954 176.676, 370.577 178.275 C 381.095 180.482, 394.626 174.860, 400.791 165.722 C 405.303 159.034, 406.502 155.090, 406.479 147 C 406.455 138.233, 404.277 132.526, 398.523 126.157 C 390.644 117.436, 376.383 113.840, 365.332 117.790 M 208.760 173.026 C 201.350 179.630, 193.931 190.852, 190.497 200.647 C 188.205 207.187, 187.664 210.684, 187.262 221.566 C 186.787 234.418, 186.820 234.680, 189.303 237.566 L 191.827 240.500 250 240.500 L 308.173 240.500 310.587 237.694 C 312.841 235.073, 313 234.117, 313 223.154 C 313 209.554, 311.546 202.728, 306.407 192.204 C 302.948 185.119, 293.883 174.189, 287.978 169.985 L 285.262 168.050 279.881 170.958 C 262.666 180.260, 238.038 180.372, 220.661 171.228 C 217.823 169.734, 215.258 168.391, 214.963 168.244 C 214.668 168.096, 211.877 170.248, 208.760 173.026 M 88.772 193.750 C 78.928 203.800, 73.429 216.652, 72.326 232.183 L 71.701 241 118.850 241 L 166 241 166 229.659 C 166 223.421, 166.491 214.670, 167.091 210.212 C 168.173 202.169, 168.160 202.077, 165.453 198.527 C 163.952 196.560, 160.991 193.577, 158.873 191.899 L 155.021 188.849 152.004 190.997 C 150.345 192.179, 146.178 194.338, 142.744 195.796 C 137.153 198.170, 135.245 198.447, 124.500 198.447 C 113.755 198.447, 111.847 198.170, 106.256 195.796 C 102.822 194.338, 98.703 192.213, 97.102 191.073 C 95.501 189.933, 94.019 189, 93.808 189 C 93.597 189, 91.331 191.137, 88.772 193.750 M 337.902 195.098 C 332.172 200.828, 331.839 201.416, 332.391 204.848 C 332.714 206.857, 333.271 215.813, 333.629 224.750 L 334.280 241 378.529 241 C 430.722 241, 427.607 241.666, 427.343 230.569 C 427.037 217.684, 420.478 202.836, 410.946 193.446 L 406.170 188.743 403.079 190.944 C 401.378 192.155, 397.178 194.338, 393.744 195.796 C 388.153 198.170, 386.245 198.447, 375.500 198.447 C 364.755 198.447, 362.847 198.170, 357.256 195.796 C 353.822 194.338, 349.703 192.213, 348.102 191.073 C 346.501 189.933, 344.923 189, 344.596 189 C 344.268 189, 341.256 191.744, 337.902 195.098 M 73.430 269.250 C 74.864 284.364, 80.405 306.099, 86.430 320.250 L 88.027 324 125.622 324 L 163.217 324 162.660 321.750 C 160.713 313.883, 156.058 272.615, 156.004 262.750 C 156.002 262.337, 137.267 262, 114.371 262 L 72.742 262 73.430 269.250 M 177.010 268.750 C 177.025 279.830, 180.022 304.434, 183.160 319.250 L 184.166 324 212.083 324 L 240 324 240 293 L 240 262 208.500 262 L 177 262 177.010 268.750 M 260 293 L 260 324 287.917 324 L 315.834 324 316.840 319.250 C 319.978 304.434, 322.975 279.830, 322.990 268.750 L 323 262 291.500 262 L 260 262 260 293 M 343.996 262.750 C 343.942 272.615, 339.287 313.883, 337.340 321.750 L 336.783 324 374.378 324 L 411.973 324 413.570 320.250 C 419.595 306.099, 425.136 284.364, 426.570 269.250 L 427.258 262 385.629 262 C 362.733 262, 343.998 262.337, 343.996 262.750 M 100 345.587 C 100 347.027, 110.636 361.323, 117.909 369.659 C 137.917 392.590, 164.498 410.606, 192.750 420.385 C 198.387 422.336, 203 423.731, 203 423.486 C 203 423.240, 200.709 419.628, 197.909 415.460 C 187.949 400.635, 175.312 370.984, 168.412 346.250 C 168.141 345.281, 160.404 345, 134.031 345 C 115.314 345, 100 345.264, 100 345.587 M 189.453 346.250 C 200.224 380.786, 210.002 400.787, 223.389 415.669 C 228.150 420.960, 236.295 427, 238.671 427 C 239.755 427, 240 419.426, 240 386 L 240 345 214.531 345 C 194.615 345, 189.148 345.273, 189.453 346.250 M 260 386 C 260 420.336, 260.226 427, 261.390 427 C 262.154 427, 265.434 425.046, 268.678 422.658 C 283.874 411.472, 299.331 383.931, 309.351 350.190 L 310.892 345 285.446 345 L 260 345 260 386 M 331.588 346.250 C 324.688 370.984, 312.051 400.635, 302.091 415.460 C 299.291 419.628, 297 423.240, 297 423.486 C 297 423.731, 301.613 422.336, 307.250 420.385 C 335.502 410.606, 362.083 392.590, 382.091 369.659 C 389.364 361.323, 400 347.027, 400 345.587 C 400 345.264, 384.686 345, 365.969 345 C 339.596 345, 331.859 345.281, 331.588 346.250"
        stroke="none"
        fill="none"
        fill-rule="evenodd"
    /></svg>
