<svg
    xmlns="http://www.w3.org/2000/svg"
    xml:space="preserve"
    viewBox="0 0 512 512"
><path
        d="m128.9 299.7 84.1 84.1 42.8-42.9 85.7-85.7-84.1-84.1-42-42-85.7 85.7 85.7-85.7-84-84.1 42.8-42.9 84 84.1L343.9.5l42 42-85.7 85.7 84 84.1 85.7-85.7 42 42-85.7 85.7 84.1 84.1-42.8 42.9-84.1-84.1-85.6 85.8 84.1 84.1-42.9 42.8-84-84.1-85.7 85.7-42-42 85.7-85.7z"
        fill="currentColor"
    /><path
        d="m44.5 129.4 84 84.1 85.7-85.7 42 42-85.7 85.7 84.1 84.1-42.8 42.9-84.1-84.1L42 384.2l-42-42 85.7-85.7-84-84.1z"
        fill="currentColor"
    /></svg>
